<svg width="133" height="52" viewBox="0 0 133 52" fill="none" xmlns="http://www.w3.org/2000/svg">
<path d="M1.40625 25V0.390625H4.46484V11.1133H7.62891V14.1016H4.46484V25H1.40625ZM9.38672 14.1016V11.1133H12.5156V0.390625H15.6094V25H12.5156V14.1016H9.38672Z" fill="white"/>
<path d="M18.3516 19.7969V11.1133C18.3516 10.0117 18.8438 8.93359 19.8281 7.87891C21.0469 6.61328 22.5703 5.98047 24.3984 5.98047V8.82812C23.0156 8.82812 22.0547 9.40234 21.5156 10.5508C21.3516 10.9023 21.2695 11.2539 21.2695 11.6055V19.3398C21.2695 20.207 21.668 20.9453 22.4648 21.5547C23.0273 21.9766 23.6719 22.1875 24.3984 22.1875V25.0352C22.1719 25.0352 20.4492 24.1328 19.2305 22.3281C18.6445 21.4375 18.3516 20.5938 18.3516 19.7969ZM25.9102 25.0352V22.1875C27.1523 22.1875 28.043 21.625 28.582 20.5C28.7695 20.125 28.8633 19.7617 28.8633 19.4102V11.6055C28.8633 10.6445 28.4531 9.88281 27.6328 9.32031C27.1172 8.99219 26.5312 8.82812 25.875 8.82812V5.98047C28.0312 5.98047 29.6953 6.85938 30.8672 8.61719C31.4531 9.48438 31.7461 10.3164 31.7461 11.1133V19.7969C31.7461 20.9453 31.2539 22.0586 30.2695 23.1367C29.1211 24.3789 27.668 25.0117 25.9102 25.0352Z" fill="white"/>
<path d="M34.418 19.9375V6.01562H37.4062V19.5859C37.4062 20.4297 37.8281 21.1328 38.6719 21.6953C39.2344 22.0469 39.8555 22.2227 40.5352 22.2227V25.1758C38.2852 25.1758 36.5508 24.2969 35.332 22.5391C34.7227 21.6484 34.418 20.7812 34.418 19.9375ZM42.082 25.1758V22.2227C43.3477 22.2227 44.2734 21.7188 44.8594 20.7109C45.0703 20.3359 45.1758 19.9609 45.1758 19.5859V6.01562H48.1641V19.9375C48.1641 21.0391 47.6602 22.1289 46.6523 23.207C45.4336 24.4961 43.9102 25.1523 42.082 25.1758Z" fill="white"/>
<path d="M50.2031 20.0078L52.9805 19.4805C52.9805 20.5352 53.5312 21.3672 54.6328 21.9766C55.1719 22.2344 55.6875 22.375 56.1797 22.3984V25.1758C53.9062 25.1758 52.207 24.3555 51.082 22.7148C50.4961 21.8477 50.2031 20.9453 50.2031 20.0078ZM50.3789 11.3594C50.3789 9.22656 51.3516 7.64453 53.2969 6.61328C54.2344 6.12109 55.1719 5.875 56.1094 5.875V8.61719C55.0312 8.61719 54.1992 9.0625 53.6133 9.95312C53.3086 10.3984 53.1562 10.8672 53.1562 11.3594C53.1562 12.1094 53.7422 12.7188 54.9141 13.1875C55.8047 13.5625 57.5273 14.0547 60.082 14.6641C61.6758 14.9922 62.8125 15.7773 63.4922 17.0195C63.8438 17.6758 64.0195 18.4141 64.0195 19.2344C64.0195 21.4844 63.1172 23.1484 61.3125 24.2266C60.2578 24.8594 59.0508 25.1758 57.6914 25.1758V22.3984C58.7695 22.3984 59.6719 22.0234 60.3984 21.2734C60.9141 20.7344 61.1719 20.1016 61.1719 19.375C61.1719 18.4375 60.2461 17.6875 58.3945 17.125C57.9258 16.9844 57.1758 16.7852 56.1445 16.5273C55.043 16.2695 54.2461 16.0586 53.7539 15.8945C51.9727 15.1914 50.8945 14.125 50.5195 12.6953C50.4258 12.2734 50.3789 11.8281 50.3789 11.3594ZM57.6562 8.65234V5.875C59.6719 5.875 61.3008 6.625 62.543 8.125C63.3164 9.08594 63.7031 10.0938 63.7031 11.1484L60.9258 11.6055C60.9258 10.3164 60.2227 9.41406 58.8164 8.89844C58.3945 8.73438 58.0078 8.65234 57.6562 8.65234Z" fill="white"/>
<path d="M66.0938 19.7969V11.0781C66.1172 10 66.6328 8.93359 67.6406 7.87891C68.8594 6.63672 70.3359 6.00391 72.0703 5.98047V8.75781C70.9453 8.75781 70.0664 9.25 69.4336 10.2344C69.1758 10.6562 69.0469 11.043 69.0469 11.3945V13.7852H76.9219V11.3945C76.9219 10.3398 76.3828 9.56641 75.3047 9.07422C74.8125 8.83984 74.3086 8.72266 73.793 8.72266V5.98047C75.4102 5.98047 76.8516 6.55469 78.1172 7.70312C79.1719 8.71094 79.7109 9.82422 79.7344 11.043V16.6328H69.0469V19.7969C69.0469 20.4531 69.4219 21.0625 70.1719 21.625C70.7812 22.0469 71.4258 22.2578 72.1055 22.2578V25C69.9727 25 68.2969 24.1328 67.0781 22.3984C66.4219 21.4844 66.0938 20.6172 66.0938 19.7969ZM73.793 25V22.2227C75.1992 22.2227 76.2539 21.6133 76.957 20.3945C77.0977 20.1367 77.2031 19.8906 77.2734 19.6562L79.7695 20.5703C79.3477 22.1875 78.3867 23.4062 76.8867 24.2266C75.9258 24.7422 74.8945 25 73.793 25Z" fill="white"/>
<path d="M81.4922 0.390625H84.5859L90.8438 21.7656L89.7188 25H88.6289L81.4922 0.390625ZM90.0703 13.4336L94.4297 0.390625H97.5234C97.3125 1.07031 96.4336 3.78906 94.8867 8.54688C93.082 14.0781 92.0508 17.2539 91.793 18.0742H91.4414L90.0703 13.4336Z" fill="white"/>
<path d="M99.2109 18.1445V6.57812C99.2109 5.33594 99.7383 4.07031 100.793 2.78125C102.199 1.09375 103.98 0.238281 106.137 0.214844V3.27344C104.707 3.27344 103.594 4 102.797 5.45312C102.469 6.08594 102.305 6.64844 102.305 7.14062V18.1445C102.305 19.6211 103.031 20.7695 104.484 21.5898C105.094 21.9414 105.633 22.1172 106.102 22.1172V25.1758C104.766 25.1758 103.43 24.6953 102.094 23.7344C100.195 22.3281 99.2344 20.4648 99.2109 18.1445ZM108.035 25.1758V22.1172C108.855 22.1172 109.688 21.7539 110.531 21.0273C111.422 20.2305 111.879 19.2695 111.902 18.1445V7.14062C111.902 6.22656 111.527 5.34766 110.777 4.50391C110.004 3.70703 109.09 3.29688 108.035 3.27344V0.214844C110.402 0.214844 112.301 1.23438 113.73 3.27344C114.551 4.44531 114.961 5.54688 114.961 6.57812V18.1445C114.961 20.7461 113.801 22.7383 111.48 24.1211C110.262 24.8242 109.113 25.1758 108.035 25.1758Z" fill="white"/>
<path d="M117.809 25H120.867V0.390625H117.809V25ZM122.625 13.9961H126.422C129.492 13.9727 131.414 12.8008 132.188 10.4805C132.492 9.54297 132.645 8.42969 132.645 7.14062C132.645 2.85156 130.711 0.601562 126.844 0.390625C126.703 0.390625 126.562 0.390625 126.422 0.390625H122.625V3.34375H125.93C128.297 3.39062 129.492 4.65625 129.516 7.14062C129.469 9.69531 128.285 10.9844 125.965 11.0078H122.625V13.9961Z" fill="white"/>
<path d="M2.89201 46.584L0.348011 42.48H1.30801L3.61201 46.26H5.20801V42.48H6.13201V46.26H7.72801L10.02 42.48H10.992L8.43601 46.584L11.304 51H10.332L7.84801 47.004H6.13201V51H5.20801V47.004H3.49201L1.00801 51H0.0360107L2.89201 46.584Z" fill="white"/>
<path d="M14.7038 49.74L19.9838 42.48H20.6798V51H19.8398V43.86L14.6438 51H13.8758V42.48H14.7038V49.74Z" fill="white"/>
<path d="M26.2123 44.736C26.1163 45.864 25.9923 46.828 25.8403 47.628C25.6963 48.428 25.5123 49.084 25.2883 49.596C25.0723 50.1 24.8083 50.472 24.4963 50.712C24.1923 50.944 23.8323 51.06 23.4163 51.06L23.2723 50.256C23.4323 50.248 23.5843 50.216 23.7283 50.16C23.8803 50.104 24.0243 50.004 24.1603 49.86C24.2963 49.708 24.4243 49.504 24.5443 49.248C24.6643 48.984 24.7763 48.648 24.8803 48.24C24.9843 47.824 25.0763 47.324 25.1563 46.74C25.2443 46.156 25.3203 45.464 25.3843 44.664L25.5643 42.48H29.8963V51H29.0683V43.224H26.3323L26.2123 44.736Z" fill="white"/>
<path d="M36.957 51.06C36.365 51.06 35.821 50.94 35.325 50.7C34.837 50.452 34.417 50.128 34.065 49.728C33.713 49.32 33.441 48.856 33.249 48.336C33.057 47.816 32.961 47.284 32.961 46.74C32.961 46.172 33.061 45.628 33.261 45.108C33.469 44.588 33.753 44.128 34.113 43.728C34.473 43.328 34.897 43.012 35.385 42.78C35.873 42.54 36.401 42.42 36.969 42.42C37.561 42.42 38.101 42.548 38.589 42.804C39.085 43.052 39.505 43.38 39.849 43.788C40.201 44.196 40.473 44.66 40.665 45.18C40.857 45.692 40.953 46.216 40.953 46.752C40.953 47.32 40.849 47.864 40.641 48.384C40.441 48.904 40.161 49.364 39.801 49.764C39.449 50.156 39.029 50.472 38.541 50.712C38.053 50.944 37.525 51.06 36.957 51.06ZM33.801 46.74C33.801 47.204 33.877 47.652 34.029 48.084C34.181 48.508 34.397 48.888 34.677 49.224C34.957 49.552 35.289 49.816 35.673 50.016C36.057 50.208 36.485 50.304 36.957 50.304C37.437 50.304 37.873 50.2 38.265 49.992C38.657 49.784 38.989 49.512 39.261 49.176C39.533 48.84 39.741 48.46 39.885 48.036C40.037 47.612 40.113 47.18 40.113 46.74C40.113 46.276 40.033 45.832 39.873 45.408C39.721 44.976 39.505 44.596 39.225 44.268C38.945 43.94 38.613 43.68 38.229 43.488C37.845 43.288 37.421 43.188 36.957 43.188C36.477 43.188 36.041 43.292 35.649 43.5C35.257 43.7 34.925 43.968 34.653 44.304C34.381 44.64 34.169 45.02 34.017 45.444C33.873 45.868 33.801 46.3 33.801 46.74Z" fill="white"/>
<path d="M49.2567 40.008C49.2407 40.392 49.0767 40.7 48.7647 40.932C48.4607 41.156 48.0367 41.268 47.4927 41.268C46.9487 41.268 46.5207 41.156 46.2087 40.932C45.9047 40.7 45.7447 40.392 45.7287 40.008H46.2447C46.2447 40.112 46.2767 40.212 46.3407 40.308C46.4047 40.404 46.4927 40.488 46.6047 40.56C46.7167 40.632 46.8487 40.692 47.0007 40.74C47.1527 40.78 47.3207 40.8 47.5047 40.8C47.8487 40.8 48.1327 40.728 48.3567 40.584C48.5887 40.432 48.7207 40.24 48.7527 40.008H49.2567ZM44.8167 49.74L50.0967 42.48H50.7927V51H49.9527V43.86L44.7567 51H43.9887V42.48H44.8167V49.74Z" fill="white"/>
<path d="M59.7319 46.26H61.0279L63.8119 42.48H64.7719L61.7839 46.584L65.0839 51H64.1239L61.0999 47.004H59.7319V51H58.9039V42.48H59.7319V46.26Z" fill="white"/>
<path d="M70.6545 51.06C70.0625 51.06 69.5185 50.94 69.0225 50.7C68.5345 50.452 68.1145 50.128 67.7625 49.728C67.4105 49.32 67.1385 48.856 66.9465 48.336C66.7545 47.816 66.6585 47.284 66.6585 46.74C66.6585 46.172 66.7585 45.628 66.9585 45.108C67.1665 44.588 67.4505 44.128 67.8105 43.728C68.1705 43.328 68.5945 43.012 69.0825 42.78C69.5705 42.54 70.0985 42.42 70.6665 42.42C71.2585 42.42 71.7985 42.548 72.2865 42.804C72.7825 43.052 73.2025 43.38 73.5465 43.788C73.8985 44.196 74.1705 44.66 74.3625 45.18C74.5545 45.692 74.6505 46.216 74.6505 46.752C74.6505 47.32 74.5465 47.864 74.3385 48.384C74.1385 48.904 73.8585 49.364 73.4985 49.764C73.1465 50.156 72.7265 50.472 72.2385 50.712C71.7505 50.944 71.2225 51.06 70.6545 51.06ZM67.4985 46.74C67.4985 47.204 67.5745 47.652 67.7265 48.084C67.8785 48.508 68.0945 48.888 68.3745 49.224C68.6545 49.552 68.9865 49.816 69.3705 50.016C69.7545 50.208 70.1825 50.304 70.6545 50.304C71.1345 50.304 71.5705 50.2 71.9625 49.992C72.3545 49.784 72.6865 49.512 72.9585 49.176C73.2305 48.84 73.4385 48.46 73.5825 48.036C73.7345 47.612 73.8105 47.18 73.8105 46.74C73.8105 46.276 73.7305 45.832 73.5705 45.408C73.4185 44.976 73.2025 44.596 72.9225 44.268C72.6425 43.94 72.3105 43.68 71.9265 43.488C71.5425 43.288 71.1185 43.188 70.6545 43.188C70.1745 43.188 69.7385 43.292 69.3465 43.5C68.9545 43.7 68.6225 43.968 68.3505 44.304C68.0785 44.64 67.8665 45.02 67.7145 45.444C67.5705 45.868 67.4985 46.3 67.4985 46.74Z" fill="white"/>
<path d="M85.2222 51V44.004L82.1142 49.416H81.6222L78.5142 44.004V51H77.6742V42.48H78.5382L81.8622 48.312L85.2102 42.48H86.0622V51H85.2222Z" fill="white"/>
<path d="M89.6848 42.48H96.2608V51H95.4208V43.224H90.5128V51H89.6848V42.48Z" fill="white"/>
<path d="M101.787 44.736C101.691 45.864 101.567 46.828 101.415 47.628C101.271 48.428 101.087 49.084 100.863 49.596C100.647 50.1 100.383 50.472 100.071 50.712C99.767 50.944 99.407 51.06 98.991 51.06L98.847 50.256C99.007 50.248 99.159 50.216 99.303 50.16C99.455 50.104 99.599 50.004 99.735 49.86C99.871 49.708 99.999 49.504 100.119 49.248C100.239 48.984 100.351 48.648 100.455 48.24C100.559 47.824 100.651 47.324 100.731 46.74C100.819 46.156 100.895 45.464 100.959 44.664L101.139 42.48H105.471V51H104.643V43.224H101.907L101.787 44.736Z" fill="white"/>
<path d="M114.824 50.256V51H109.1V42.48H114.716V43.224H109.94V46.296H114.104V47.004H109.94V50.256H114.824Z" fill="white"/>
<path d="M118.692 46.26H119.988L122.772 42.48H123.732L120.744 46.584L124.044 51H123.084L120.06 47.004H118.692V51H117.864V42.48H118.692V46.26Z" fill="white"/>
<path d="M125.607 46.68C125.607 46.168 125.695 45.66 125.871 45.156C126.055 44.644 126.319 44.188 126.663 43.788C127.007 43.388 127.431 43.064 127.935 42.816C128.439 42.56 129.011 42.432 129.651 42.432C130.411 42.432 131.059 42.604 131.595 42.948C132.139 43.292 132.539 43.74 132.795 44.292L132.135 44.7C131.999 44.42 131.831 44.184 131.631 43.992C131.439 43.8 131.231 43.644 131.007 43.524C130.783 43.404 130.551 43.32 130.311 43.272C130.071 43.216 129.835 43.188 129.603 43.188C129.091 43.188 128.639 43.292 128.247 43.5C127.855 43.708 127.523 43.98 127.251 44.316C126.987 44.652 126.787 45.032 126.651 45.456C126.515 45.872 126.447 46.296 126.447 46.728C126.447 47.2 126.527 47.652 126.687 48.084C126.855 48.516 127.079 48.9 127.359 49.236C127.647 49.564 127.983 49.828 128.367 50.028C128.759 50.22 129.183 50.316 129.639 50.316C129.879 50.316 130.123 50.288 130.371 50.232C130.627 50.168 130.871 50.072 131.103 49.944C131.343 49.808 131.563 49.644 131.763 49.452C131.963 49.252 132.131 49.012 132.267 48.732L132.963 49.092C132.827 49.412 132.635 49.696 132.387 49.944C132.139 50.184 131.863 50.388 131.559 50.556C131.255 50.724 130.931 50.852 130.587 50.94C130.251 51.028 129.919 51.072 129.591 51.072C129.007 51.072 128.471 50.944 127.983 50.688C127.495 50.432 127.075 50.1 126.723 49.692C126.371 49.276 126.095 48.808 125.895 48.288C125.703 47.76 125.607 47.224 125.607 46.68Z" fill="white"/>
</svg>
